<?xml version="1.0" encoding="UTF-8"?>
<svg width="327px" height="104px" viewBox="0 0 327 104" version="1.1" xmlns="http://www.w3.org/2000/svg" xmlns:xlink="http://www.w3.org/1999/xlink">
    <title>Group 5</title>
    <g id="Page-1" stroke="none" stroke-width="1" fill="none" fill-rule="evenodd">
        <g id="Artboard" transform="translate(-413.000000, -596.000000)">
            <g id="Group-5" transform="translate(413.000000, 596.000000)">
                <rect id="Rectangle" fill="#FFFFFF" x="0" y="0" width="327" height="104" rx="52"></rect>
                <g id="svgexport-1-(4)" transform="translate(36.000000, 20.000000)" fill="#7289DA" fill-rule="nonzero">
                    <path d="M37.4147627,29 C35.4112478,29 33.8295255,30.7818182 33.8295255,33 C33.8295255,35.2181818 35.4463972,37 37.4147627,37 C39.4182777,37 41,35.2181818 41,33 C41,30.7818182 39.3831283,29 37.4147627,29 Z M24.5852373,29 C22.5817223,29 21,30.7818182 21,33 C21,35.2181818 22.6168717,37 24.5852373,37 C26.5887522,37 28.1704745,35.2181818 28.1704745,33 C28.2056239,30.7818182 26.5887522,29 24.5852373,29 Z" id="Shape"></path>
                    <path d="M54.5093716,0 L7.23263506,0 C3.24586549,0 0,3.24760464 0,7.23651034 L0,54.5385779 C0,58.5274836 3.24586549,61.7750883 7.23263506,61.7750883 L47.2414553,61.7750883 L45.3715546,55.315179 L49.8875413,59.480585 L54.1565601,63.3988906 L61.7772878,70 L61.7772878,7.23651034 C61.7420066,3.24760464 58.4961411,0 54.5093716,0 Z M40.890849,45.7135653 C40.890849,45.7135653 39.6207277,44.1956631 38.5622933,42.8895613 C43.1841235,41.5834594 44.9481808,38.7241553 44.9481808,38.7241553 C43.5016538,39.6772567 42.1256891,40.3479576 40.890849,40.8068583 C39.1267916,41.5481594 37.4332966,42.00706 35.7750827,42.3247605 C32.3880926,42.9601614 29.2833517,42.7836611 26.6372657,42.2894604 C24.6262404,41.9011599 22.8974642,41.3716591 21.4509372,40.7715582 C20.6394708,40.4538578 19.7574421,40.0655572 18.8754135,39.5713565 C18.76957,39.5007564 18.6637266,39.4654564 18.5578831,39.3948563 C18.4873208,39.3595562 18.4520397,39.3242562 18.4167585,39.3242562 C17.7816979,38.9712557 17.4288864,38.7241553 17.4288864,38.7241553 C17.4288864,38.7241553 19.1223815,41.5128593 23.6030871,42.8542612 C22.5446527,44.1956631 21.2392503,45.7488654 21.2392503,45.7488654 C13.4421169,45.501765 10.4785006,40.4185577 10.4785006,40.4185577 C10.4785006,29.1578417 15.5589857,20.0151286 15.5589857,20.0151286 C20.6394708,16.2380232 25.4377067,16.3439233 25.4377067,16.3439233 L25.7905182,16.767524 C19.4399118,18.5678265 16.5468578,21.3565305 16.5468578,21.3565305 C16.5468578,21.3565305 17.323043,20.9329299 18.6284454,20.3681291 C22.4035281,18.7090267 25.4024256,18.2854261 26.6372657,18.1442259 C26.8489526,18.1089259 27.0253583,18.0736258 27.2370452,18.0736258 C29.3891951,17.7912254 31.8235943,17.7206253 34.3638368,18.0030257 C37.7155458,18.3913263 41.3142227,19.3797277 44.983462,21.3565305 C44.983462,21.3565305 42.1962514,18.7090267 36.1984564,16.9087242 L36.6923925,16.3439233 C36.6923925,16.3439233 41.5259096,16.2380232 46.5711136,20.0151286 C46.5711136,20.0151286 51.6515987,29.1578417 51.6515987,40.4185577 C51.6515987,40.3832577 48.6879824,45.466465 40.890849,45.7135653 L40.890849,45.7135653 Z M94.1653804,15.1084216 L82.4520397,15.1084216 L82.4520397,28.2753404 L90.2491731,35.3000504 L90.2491731,22.5214322 L94.4123484,22.5214322 C97.0584344,22.5214322 98.3638368,23.792234 98.3638368,25.8396369 L98.3638368,35.6177509 C98.3638368,37.6651538 97.1289967,39.0418558 94.4123484,39.0418558 L82.4167585,39.0418558 L82.4167585,46.4904604 L94.1300992,46.4904604 C100.410143,46.5254665 106.302252,43.383762 106.302252,36.1825517 L106.302252,25.6631367 C106.337376,18.3207262 100.445424,15.1084216 94.1653804,15.1084216 L94.1653804,15.1084216 Z M155.554576,36.1825517 L155.554576,25.3807363 C155.554576,21.4977307 162.540243,20.6152295 164.657111,24.498235 L171.113561,21.8860313 C168.573319,16.3086233 163.951488,14.684821 160.105843,14.684821 C153.825799,14.684821 147.616318,18.3207262 147.616318,25.3807363 L147.616318,36.1825517 C147.616318,43.3131619 153.825799,46.878467 159.964719,46.878467 C163.916207,46.878467 168.643881,44.9369642 171.254686,39.8537569 L164.339581,36.6767524 C162.646086,41.0186586 155.554576,39.9596571 155.554576,36.1825517 Z M134.209482,26.8633384 C131.775083,26.3338376 130.15215,25.4513364 130.046307,23.9334342 C130.187431,20.297529 135.797133,20.1563288 139.07828,23.6510338 L144.264609,19.6621281 C141.018743,15.7085224 137.349504,14.6495209 133.574421,14.6495209 C127.823594,14.6495209 122.249173,17.8971256 122.249173,24.0393343 C122.249173,30.0050429 126.835722,33.2173475 131.880926,33.9939486 C134.45645,34.3469491 137.314223,35.3706505 137.24366,37.1356531 C137.031974,40.4891578 130.116869,40.3126576 126.976847,36.5002521 L121.966924,41.1951589 C124.895259,44.9722642 128.882029,46.878467 132.62183,46.878467 C138.372657,46.878467 144.758545,43.5602622 145.005513,37.4886536 C145.358324,29.8285426 139.783903,27.8870398 134.209482,26.8633384 Z M110.571114,46.4548664 L118.47409,46.4548664 L118.47409,15.1084216 L110.571114,15.1084216 L110.571114,46.4548664 Z M243.828004,15.1084216 L232.114664,15.1084216 L232.114664,28.2753404 L239.911797,35.3000504 L239.911797,22.5214322 L244.074972,22.5214322 C246.721058,22.5214322 248.026461,23.792234 248.026461,25.8396369 L248.026461,35.6177509 C248.026461,37.6651538 246.791621,39.0418558 244.074972,39.0418558 L232.079383,39.0418558 L232.079383,46.4904604 L243.828004,46.4904604 C250.108049,46.5254665 256,43.383762 256,36.1825517 L256,25.6631367 C256,18.3207262 250.108049,15.1084216 243.828004,15.1084216 Z M186.355017,14.684821 C179.863286,14.684821 173.406836,18.214826 173.406836,25.4513364 L173.406836,36.1472516 C173.406836,43.3131619 179.898567,46.913767 186.425579,46.913767 C192.91731,46.913767 199.37376,43.3131619 199.37376,36.1472516 L199.37376,25.4513364 C199.37376,18.2501261 192.846748,14.684821 186.355017,14.684821 Z M191.435502,36.1472516 C191.435502,38.4064549 188.895259,39.5713565 186.390298,39.5713565 C183.850055,39.5713565 181.309813,38.477055 181.309813,36.1472516 L181.309813,25.4513364 C181.309813,23.1568331 183.779493,21.9213313 186.249173,21.9213313 C188.824697,21.9213313 191.435502,23.0156329 191.435502,25.4513364 L191.435502,36.1472516 L191.435502,36.1472516 Z M227.739802,25.4513364 C227.563396,18.1089259 222.553473,15.1437216 216.097023,15.1437216 L203.572216,15.1437216 L203.572216,46.4901664 L211.581036,46.4901664 L211.581036,36.5355522 L212.992282,36.5355522 L220.260198,46.4901664 L230.13892,46.4901664 L221.600882,35.723651 C225.375965,34.5234493 227.739802,31.2405446 227.739802,25.4513364 Z M216.238148,29.6873424 L211.581036,29.6873424 L211.581036,22.5214322 L216.238148,22.5214322 C221.212789,22.5214322 221.212789,29.6873424 216.238148,29.6873424 Z" id="Shape"></path>
                </g>
            </g>
        </g>
    </g>
</svg>