<?xml version="1.0" encoding="UTF-8"?>
<svg width="639px" height="406px" viewBox="0 0 639 406" version="1.1" xmlns="http://www.w3.org/2000/svg" xmlns:xlink="http://www.w3.org/1999/xlink">
    <title>Group 4</title>
    <g id="Page-1" stroke="none" stroke-width="1" fill="none" fill-rule="evenodd">
        <g id="Artboard" transform="translate(-256.000000, -89.000000)">
            <g id="Group-4" transform="translate(256.000000, 89.000000)">
                <g id="Group-4-Copy" transform="translate(138.000000, 0.000000)" fill="#EFFF00" fill-rule="nonzero">
                    <g id="Group-2">
                        <path d="M17.1381897,11.7610866 C17.3537644,11.9755862 17.6232328,12.1364608 17.9465948,12.2437106 C18.2699569,12.3509604 18.4855316,12.2973355 18.593319,12.0828359 C19.0244684,11.3320875 19.5095115,10.5545267 20.0484483,9.7501534 C20.5873851,8.94578011 21.3957902,8.70446812 22.4736638,9.02621744 C24.952773,9.02621744 27.2163075,9.77696584 29.2642672,11.2784627 C29.9109914,12.8872092 30.4229813,13.9865194 30.8002371,14.5763931 C31.1774928,15.1662669 31.7433764,15.353954 32.4978879,15.1394545 C33.0368247,13.6379576 34.2224856,12.8872092 36.0548707,12.8872092 C36.8093822,12.8872092 37.348319,12.9408341 37.671681,13.0480839 L38.4800862,14.6568305 L37.1866379,48.1187594 C37.1866379,49.4057567 37.2405316,50.7463788 37.348319,52.1406259 C37.4561063,53.5348729 37.5638937,54.8754951 37.671681,56.1624923 C37.671681,56.805991 37.671681,57.3958647 37.671681,57.9321136 C37.348319,59.3263606 37.1327443,60.3452334 37.0249569,60.9887321 C37.9950431,61.8467303 39.180704,62.2757293 40.5819397,62.2757293 C41.5520259,62.2757293 42.8993678,62.0344174 44.6239655,61.5517934 C46.3485632,61.0691694 47.4803305,60.8278574 48.0192672,60.8278574 C53.8397845,59.8626095 59.6603017,58.8437366 65.480819,57.7712389 L67.4209914,57.7712389 C68.4988649,57.7712389 69.1455891,58.0929882 69.3611638,58.7364869 C69.0378017,60.2379837 67.7713003,61.3909187 65.5616595,62.195292 C63.3520187,62.9996653 62.0316236,63.6699764 61.6004741,64.2062252 C62.1394109,64.9569737 62.8400287,65.3323479 63.7023276,65.3323479 C64.8879885,65.2250981 65.7502874,65.1714732 66.2892241,65.1714732 C67.151523,65.1714732 67.7982471,65.4395976 68.2293966,65.9758465 C68.1216092,67.0483442 67.1784698,68.0404046 65.3999784,68.9520277 C63.6214871,69.8636507 62.7322414,70.5875867 62.7322414,71.1238356 C62.7322414,71.5528346 63.0556034,72.0890835 63.7023276,72.7325821 L66.1275431,72.7325821 C68.6066523,72.7325821 70.0078879,73.268831 70.33125,74.3413287 C68.6066523,75.628326 65.6155532,76.4326993 61.3579526,76.7544486 C57.100352,77.0761979 54.2709339,77.5588219 52.8696983,78.2023205 C52.7619109,78.5240698 53.0313793,79.1139436 53.6781034,79.9719418 C55.4027011,80.0791915 57.2889799,80.1864413 59.3369397,80.2936911 C61.3848994,80.4009409 63.0556034,80.7226902 64.3490517,81.258939 C64.4568391,81.9024377 64.1065302,82.4118741 63.298125,82.7872483 C62.4897198,83.1626225 61.4926868,83.4843718 60.3070259,83.7524962 C59.1213649,84.0206207 57.8279167,84.2619327 56.426681,84.4764322 C55.0254454,84.6909317 53.8397845,85.2271806 52.8696983,86.0851788 C53.3008477,87.1576765 54.5134555,87.7475503 56.5075216,87.8548 C58.5015876,87.9620498 59.7680891,88.2301742 60.3070259,88.6591733 C57.612342,91.1259181 54.6212428,93.1636637 51.3337284,94.7724103 C48.0462141,96.3811569 44.6778592,97.1855302 41.2286638,97.1855302 C39.0729167,97.6145293 36.9441164,97.9362786 34.8422629,98.1507782 C32.7404095,98.3652777 30.3960345,98.4725275 27.8091379,98.4725275 C24.1443678,98.4725275 21.0185345,98.2580279 18.4316379,97.8290288 C18.3238506,97.7217791 18.0004885,97.0782804 17.4615517,95.8985329 C16.9226149,94.7187854 16.1681034,94.1289117 15.1980172,94.1289117 C14.227931,94.1289117 12.8266954,94.450661 10.9943103,95.0941596 C9.16192529,95.7376583 7.76068966,96.0594076 6.79060345,96.0594076 C5.71272989,96.0594076 4.74264368,95.7912832 3.88034483,95.2550343 L3.88034483,91.8766665 C3.88034483,89.4099217 3.79950431,87.613488 3.63782328,86.4873654 C3.47614224,85.3612428 2.91025862,84.101058 1.94017241,82.706811 C1.94017241,79.7038173 1.7245977,75.145702 1.29344828,69.032465 C0.862298851,62.919228 0.646724138,58.3074878 0.646724138,55.1972444 C0.646724138,51.7652517 0.781458333,48.9767576 1.05092672,46.8317621 C1.32039511,44.6867667 1.88627874,42.2200219 2.74857759,39.4315279 C2.74857759,36.9647831 2.4791092,34.176289 1.94017241,31.0660456 C0.646724138,23.6658113 0,19.0004463 0,17.0699504 C1.18566092,17.3916997 2.12880029,16.9358881 2.8294181,15.7025158 C3.53003592,14.4691434 4.2037069,13.2625834 4.85043103,12.0828359 C4.95821839,10.0450903 5.09295259,8.35590636 5.25463362,7.01528421 C5.41631466,5.67466206 6.30556034,4.84347632 7.92237069,4.521727 C8.46130747,4.30722746 9.10803161,4.06591547 9.8625431,3.79779104 C10.6170546,3.52966661 11.2098851,3.3956044 11.6410345,3.3956044 C12.395546,3.3956044 13.0961638,3.71735371 13.7428879,4.36085235 C13.8506753,4.57535189 14.4973994,5.75509938 15.6830603,7.90009483 C16.5453592,9.40159164 17.0304023,10.6885889 17.1381897,11.7610866 Z" id="Path"></path>
                        <path d="M131.713143,2.57062236 C137.52861,3.53460575 142.859454,5.16802204 147.705676,7.47087123 C152.551899,9.77372043 157.07504,13.0137757 161.275099,17.191037 C162.459731,18.797676 163.321282,20.0294326 163.859751,20.8863067 C164.828995,22.4929457 165.152077,24.04603 164.828995,25.5455597 C169.136748,39.2555456 171.290625,53.4475232 171.290625,68.1214925 C170.213687,72.6200817 169.136748,77.0651162 168.05981,81.456596 C166.444403,86.4907315 164.021292,90.4537743 160.790477,93.3457245 C159.928926,93.559943 159.175069,93.6670522 158.528906,93.6670522 C156.805805,93.4528337 155.513479,93.3457245 154.651928,93.3457245 C154.328847,93.3457245 153.736531,93.4528337 152.87498,93.6670522 C146.736432,95.8092375 140.597884,97.5229858 134.459335,98.808297 C128.320787,100.093608 122.236086,100.736264 116.205231,100.736264 C115.128293,100.414936 114.078278,99.9061669 113.055187,99.2099567 C112.032096,98.5137465 110.928234,97.5765404 109.743602,96.3983385 C105.651236,96.3983385 101.666564,95.3808005 97.7895866,93.3457245 C94.9895471,91.8461947 91.5971915,89.4362363 87.6125198,86.1158491 C84.9201741,84.4021008 82.1739814,81.9921424 79.3739419,78.8859737 C78.2970036,77.6006625 75.9815862,74.7087123 72.4276899,70.2101232 C71.2430578,68.6034842 70.6507417,66.4612989 70.6507417,63.7835673 C70.7584355,61.4271635 70.8122824,59.7134152 70.8122824,58.6423226 C70.8122824,57.3570114 70.7045886,56.2055868 70.4892009,55.1880488 C70.2738133,54.1705108 69.843038,53.2333047 69.196875,52.3764306 C70.1661195,43.9147987 71.6738331,36.8991418 73.7200158,31.32946 C76.4123616,24.2602485 80.3701098,18.288907 85.5932605,13.4154354 C90.8164112,8.54196388 96.4972607,4.81991693 102.635809,2.24929457 C103.605053,2.03507604 104.547374,2.49029041 105.462772,3.61493769 C106.37817,4.73958498 107.105103,5.35546325 107.643572,5.46257252 C109.258979,5.03413546 111.574397,4.23081597 114.589824,3.05261405 C119.866822,1.01753802 123.90534,0 126.70538,0 C127.56693,0 128.26694,0.0535546325 128.805409,0.160663898 L131.713143,2.57062236 Z M127.351543,34.2214102 C124.551503,34.2214102 121.536076,34.6498472 118.305261,35.5067213 C114.320589,36.7920325 111.412856,37.7024613 109.582061,38.2380076 C107.105103,39.3091003 105.489695,41.5048402 104.735839,44.8252274 C104.305063,48.7882702 103.981982,51.6266657 103.766594,53.340414 C105.920471,56.0181456 107.482031,57.8390031 108.451276,58.8029865 C110.497458,60.9451718 112.435947,62.4447015 114.266742,63.3015756 C115.343681,63.1944664 117.174476,63.2212437 119.759128,63.3819076 C122.34378,63.5425715 123.689953,63.6229034 123.797646,63.6229034 C125.628441,63.6229034 127.163079,63.4354622 128.401558,63.0605798 C129.640037,62.6856973 130.743898,61.9627098 131.713143,60.8916172 C133.759326,55.8574817 134.890111,53.0190862 135.105498,52.3764306 C135.751661,50.3413546 136.074743,48.4669424 136.074743,46.7531942 C136.074743,44.6110089 135.536274,42.6294875 134.459335,40.80863 L127.351543,34.2214102 Z M161.759721,72.13809 L160.952017,72.7807456 L154.167306,84.3485462 C154.705775,84.8840925 155.325015,85.2054203 156.025025,85.3125296 C156.725035,85.4196388 157.613509,85.4196388 158.690447,85.3125296 C159.444304,85.098311 159.902003,84.5627647 160.063543,83.7058906 C160.225084,82.8490165 160.467395,82.2599155 160.790477,81.9385877 C161.328946,79.4750746 161.867415,77.0115615 162.405884,74.5480484 C162.405884,73.6911743 162.190496,72.8878548 161.759721,72.13809 Z" id="Shape"></path>
                        <path d="M233.806893,2.57062236 C239.62236,3.53460575 244.953204,5.16802204 249.799426,7.47087123 C254.645649,9.77372043 259.16879,13.0137757 263.368849,17.191037 C264.553481,18.797676 265.415032,20.0294326 265.953501,20.8863067 C266.922745,22.4929457 267.245827,24.04603 266.922745,25.5455597 C271.230498,39.2555456 273.384375,53.4475232 273.384375,68.1214925 C272.307437,72.6200817 271.230498,77.0651162 270.15356,81.456596 C268.538153,86.4907315 266.115042,90.4537743 262.884227,93.3457245 C262.022676,93.559943 261.268819,93.6670522 260.622656,93.6670522 C258.899555,93.4528337 257.607229,93.3457245 256.745678,93.3457245 C256.422597,93.3457245 255.830281,93.4528337 254.96873,93.6670522 C248.830182,95.8092375 242.691634,97.5229858 236.553085,98.808297 C230.414537,100.093608 224.329836,100.736264 218.298981,100.736264 C217.222043,100.414936 216.172028,99.9061669 215.148937,99.2099567 C214.125846,98.5137465 213.021984,97.5765404 211.837352,96.3983385 C207.744986,96.3983385 203.760314,95.3808005 199.883337,93.3457245 C197.083297,91.8461947 193.690941,89.4362363 189.70627,86.1158491 C187.013924,84.4021008 184.267731,81.9921424 181.467692,78.8859737 C180.390754,77.6006625 178.075336,74.7087123 174.52144,70.2101232 C173.336808,68.6034842 172.744492,66.4612989 172.744492,63.7835673 C172.852186,61.4271635 172.906032,59.7134152 172.906032,58.6423226 C172.906032,57.3570114 172.798339,56.2055868 172.582951,55.1880488 C172.367563,54.1705108 171.936788,53.2333047 171.290625,52.3764306 C172.259869,43.9147987 173.767583,36.8991418 175.813766,31.32946 C178.506112,24.2602485 182.46386,18.288907 187.68701,13.4154354 C192.910161,8.54196388 198.591011,4.81991693 204.729559,2.24929457 C205.698803,2.03507604 206.641124,2.49029041 207.556522,3.61493769 C208.47192,4.73958498 209.198853,5.35546325 209.737322,5.46257252 C211.352729,5.03413546 213.668147,4.23081597 216.683574,3.05261405 C221.960572,1.01753802 225.99909,0 228.79913,0 C229.66068,0 230.36069,0.0535546325 230.899159,0.160663898 L233.806893,2.57062236 Z M229.445293,34.2214102 C226.645253,34.2214102 223.629826,34.6498472 220.399011,35.5067213 C216.414339,36.7920325 213.506606,37.7024613 211.675811,38.2380076 C209.198853,39.3091003 207.583445,41.5048402 206.829589,44.8252274 C206.398813,48.7882702 206.075732,51.6266657 205.860344,53.340414 C208.014221,56.0181456 209.575781,57.8390031 210.545026,58.8029865 C212.591208,60.9451718 214.529697,62.4447015 216.360492,63.3015756 C217.437431,63.1944664 219.268226,63.2212437 221.852878,63.3819076 C224.43753,63.5425715 225.783703,63.6229034 225.891396,63.6229034 C227.722191,63.6229034 229.256829,63.4354622 230.495308,63.0605798 C231.733787,62.6856973 232.837648,61.9627098 233.806893,60.8916172 C235.853076,55.8574817 236.983861,53.0190862 237.199248,52.3764306 C237.845411,50.3413546 238.168493,48.4669424 238.168493,46.7531942 C238.168493,44.6110089 237.630024,42.6294875 236.553085,40.80863 L229.445293,34.2214102 Z M263.853471,72.13809 L263.045767,72.7807456 L256.261056,84.3485462 C256.799525,84.8840925 257.418765,85.2054203 258.118775,85.3125296 C258.818785,85.4196388 259.707259,85.4196388 260.784197,85.3125296 C261.538054,85.098311 261.995753,84.5627647 262.157293,83.7058906 C262.318834,82.8490165 262.561145,82.2599155 262.884227,81.9385877 C263.422696,79.4750746 263.961165,77.0115615 264.499634,74.5480484 C264.499634,73.6911743 264.284246,72.8878548 263.853471,72.13809 Z" id="Shape"></path>
                        <path d="M356.936233,1.45070423 C356.397231,2.74021909 355.85823,3.97600417 355.319228,5.15805947 C355.319228,5.69535733 355.696529,6.12519562 356.451131,6.44757433 L358.553237,6.76995305 C358.661038,7.52217006 358.445437,8.30125196 357.906435,9.10719875 C357.367434,9.91314554 356.612832,10.5847679 355.642629,11.1220657 C354.672426,11.6593636 353.648323,12.1966615 352.57032,12.7339593 C352.57032,13.7010955 353.324922,14.2383933 354.834127,14.3458529 C356.343331,14.4533125 357.097933,14.7219614 357.097933,15.1517997 C357.097933,15.3667188 356.828432,15.9040167 356.289431,16.7636933 C355.103627,18.590506 352.67812,19.6382368 349.01291,19.9068858 C345.347699,20.1755347 343.029993,20.5785081 342.05979,21.1158059 C341.95199,21.4381847 342.05979,21.8142932 342.383191,22.2441315 C342.706592,22.6739697 343.191693,22.8888889 343.838495,22.8888889 C346.749103,22.8888889 349.848362,23.1575378 353.136272,23.6948357 C356.424181,24.2321335 359.63124,24.7694314 362.757449,25.3067293 C363.08085,25.629108 363.08085,26.3275952 362.757449,27.4021909 C361.679446,28.1544079 360.547543,28.6648409 359.36174,28.9334898 C358.175936,29.2021388 356.612832,29.3364632 354.672426,29.3364632 L349.821412,29.3364632 C347.773206,29.3364632 346.264002,29.4439228 345.293799,29.6588419 C344.754798,29.9812207 344.404447,30.3573292 344.242746,30.7871674 C344.081046,31.2170057 344.269696,31.5393845 344.808698,31.7543036 C345.239899,32.1841419 346.237052,32.5871153 347.800156,32.9632238 C349.363261,33.3393323 350.360414,33.903495 350.791615,34.6557121 C349.713612,35.7303078 348.500858,36.4556599 347.153355,36.8317684 C345.805851,37.2078769 344.161896,37.3959311 342.22149,37.3959311 C341.143487,37.3959311 339.230032,37.2884716 336.481124,37.0735524 C333.732216,36.8586333 332.303862,36.7511737 332.196062,36.7511737 C331.118059,38.3630673 330.525157,41.0764215 330.417357,44.8912363 C330.309556,48.7060511 330.147856,50.989567 329.932255,51.741784 C330.147856,53.4611372 330.309556,55.4222744 330.417357,57.6251956 C330.525157,59.8281168 330.579057,62.0041732 330.579057,64.1533646 C330.579057,66.0876369 330.525157,69.0427752 330.417357,73.0187793 C330.309556,76.9947835 330.255656,80.0573813 330.255656,82.2065728 C330.255656,83.0662493 330.309556,84.4900887 330.417357,86.4780908 C330.525157,88.4660929 330.579057,89.943662 330.579057,90.9107981 C330.579057,91.9853938 329.986155,92.6570162 328.800352,92.9256651 C327.614548,93.194314 326.913846,93.4898279 326.698246,93.8122066 C325.189042,96.3912363 324.057138,98.2986437 323.302536,99.5344288 C322.547934,100.770214 321.523831,101.925404 320.230227,103 C319.044424,102.570162 318.128121,101.73735 317.481319,100.501565 C316.834518,99.2657799 316.241616,97.6807512 315.702614,95.7464789 C313.977809,93.5972874 312.199104,91.9316641 310.366499,90.7496088 C308.533894,89.5675535 306.539588,88.9765258 304.383582,88.9765258 C303.73678,89.191445 303.089978,89.4063641 302.443176,89.6212833 C300.826172,90.2660407 299.640368,90.4809598 298.885766,90.2660407 C297.699963,88.9765258 296.94536,88.0631195 296.62196,87.5258216 C295.867357,86.3437663 295.651757,85.2691706 295.975158,84.3020344 L296.78366,59.4788732 C296.78366,56.4700052 296.62196,53.4074074 296.298559,50.2910798 C295.328356,41.0495566 294.843254,35.9452269 294.843254,34.9780908 L293.873052,34.172144 C292.363847,34.172144 290.315641,34.3064684 287.728434,34.5751174 C285.141227,34.8437663 283.578122,34.9780908 283.039121,34.9780908 C281.206515,34.9780908 279.616461,34.7900365 278.268957,34.413928 C276.921453,34.0378195 275.7087,33.3124674 274.630696,32.2378717 C274.307296,31.2707355 274.684597,30.4916536 275.7626,29.900626 C276.840603,29.3095983 277.487405,28.9066249 277.703005,28.6917058 C277.487405,27.0798122 277.379604,25.8977569 277.379604,25.1455399 C277.379604,23.2112676 278.242007,22.2441315 279.966812,22.2441315 C282.015018,21.7068336 283.146921,21.1695357 283.362522,20.6322379 C282.82352,19.5576421 281.449066,18.8054251 279.23916,18.3755869 C277.029253,17.9457486 275.600899,17.2472613 274.954097,16.2801252 C274.522896,15.312989 274.927147,14.318988 276.166851,13.2981221 C277.406554,12.2772561 278.026406,11.4981742 278.026406,10.9608764 C278.026406,10.3161189 277.891656,9.83255086 277.622155,9.51017214 C277.352654,9.18779343 277.164004,8.83854982 277.056203,8.46244131 C276.948403,8.08633281 276.894503,7.79081899 276.894503,7.57589984 C276.894503,6.93114241 277.190954,5.91027647 277.783856,4.51330203 C278.376757,3.1163276 278.673208,2.09546166 278.673208,1.45070423 L279.966812,0.644757433 L326.859946,1.28951487 L329.447154,1.28951487 L331.872661,1.28951487 C336.400274,1.28951487 339.661233,1.20892019 341.655539,1.04773083 C343.649844,0.886541471 346.102302,0.537297861 349.01291,0 C350.953315,0.214919144 352.54337,0.34924361 353.783074,0.402973396 C355.022777,0.456703182 356.07383,0.805946792 356.936233,1.45070423 Z" id="Path"></path>
                    </g>
                    <g id="Group-3" transform="translate(123.000000, 129.000000)">
                        <path d="M39.9376369,5.04848485 C43.6527659,5.66666667 47.0583009,6.71414141 50.1542417,8.19090909 C53.2501826,9.66767677 56.1397274,11.7454545 58.8228761,14.4242424 C59.5796616,15.4545455 60.1300511,16.2444444 60.4740445,16.7939394 C61.0932327,17.8242424 61.2996288,18.820202 61.0932327,19.7818182 C63.8451801,28.5737374 65.2211538,37.6747475 65.2211538,47.0848485 C64.533167,49.969697 63.8451801,52.820202 63.1571933,55.6363636 C62.125213,58.8646465 60.5772426,61.4060606 58.513282,63.2606061 C57.9628925,63.3979798 57.4813017,63.4666667 57.0685096,63.4666667 C55.9677306,63.3292929 55.1421464,63.2606061 54.5917569,63.2606061 C54.3853609,63.2606061 54.0069681,63.3292929 53.4565786,63.4666667 C49.5350536,64.840404 45.6135285,65.9393939 41.6920034,66.7636364 C37.7704783,67.5878788 33.8833526,68 30.0306262,68 C29.3426394,67.7939394 28.6718522,67.4676768 28.0182647,67.0212121 C27.3646772,66.5747475 26.6594906,65.9737374 25.9027051,65.2181818 C23.288355,65.2181818 20.7428037,64.5656566 18.266051,63.2606061 C16.4772852,62.2989899 14.3101266,60.7535354 11.7645752,58.6242424 C10.0446081,57.5252525 8.2902416,55.979798 6.50147578,53.9878788 C5.81348892,53.1636364 4.33431719,51.3090909 2.06396056,48.4242424 C1.30717502,47.3939394 0.928782254,46.020202 0.928782254,44.3030303 C0.99758094,42.7919192 1.03198028,41.6929293 1.03198028,41.0060606 C1.03198028,40.1818182 0.963181597,39.4434343 0.825584226,38.7909091 C0.687986855,38.1383838 0.412792113,37.5373737 0,36.9878788 C0.619188169,31.5616162 1.58236977,27.0626263 2.88954479,23.4909091 C4.60951193,18.9575758 7.13786362,15.1282828 10.4745999,12.0030303 C13.8113361,8.87777778 17.4404668,6.49090909 21.3619918,4.84242424 C21.98118,4.70505051 22.5831685,4.9969697 23.1679573,5.71818182 C23.7527462,6.43939394 24.2171373,6.83434343 24.5611307,6.9030303 C25.593111,6.62828283 27.0722827,6.11313131 28.9986459,5.35757576 C32.3697815,4.05252525 34.9497322,3.4 36.7384981,3.4 C37.2888875,3.4 37.736079,3.43434343 38.0800724,3.5030303 L39.9376369,5.04848485 Z M36.7755769,24.9333333 C34.9905769,24.9333333 33.0682692,25.2140862 31.0086538,25.775592 C28.4684615,26.6178506 26.6148077,27.2144505 25.4476923,27.5653916 C23.8686538,28.2672738 22.8388462,29.7061324 22.3582692,31.8819672 C22.0836538,34.4789314 21.8776923,36.3389192 21.7403846,37.4619308 C23.1134615,39.2166363 24.1089423,40.4098361 24.7268269,41.0415301 C26.03125,42.4452945 27.2670192,43.4279296 28.4341346,43.9894353 C29.1206731,43.9192471 30.2877885,43.9367942 31.9354808,44.0420765 C33.5831731,44.1473588 34.4413462,44.2 34.51,44.2 C35.6771154,44.2 36.6554327,44.0771706 37.4449519,43.8315118 C38.2344712,43.5858531 38.9381731,43.1120826 39.5560577,42.4102004 C40.8604808,39.111354 41.5813462,37.2513661 41.7186538,36.8302368 C42.1305769,35.4966606 42.3365385,34.2683667 42.3365385,33.1453552 C42.3365385,31.7415908 41.9932692,30.4431087 41.3067308,29.2499089 L36.7755769,24.9333333 Z M59.0512821,49.8666667 L58.4903846,50.2513131 L53.7788462,57.1749495 C54.1527778,57.4954882 54.5827991,57.6878114 55.0689103,57.7519192 C55.5550214,57.8160269 56.1720085,57.8160269 56.9198718,57.7519192 C57.4433761,57.6237037 57.7612179,57.303165 57.8733974,56.790303 C57.9855769,56.2774411 58.1538462,55.9248485 58.3782051,55.7325253 C58.7521368,54.2580471 59.1260684,52.783569 59.5,51.3090909 C59.5,50.796229 59.3504274,50.3154209 59.0512821,49.8666667 Z" id="Shape"></path>
                        <path d="M101.556416,5.95708333 C104.689994,8.35361111 107.823572,10.7159028 110.95715,13.0439583 C112.976567,14.6188194 114.734852,16.3819792 116.232006,18.3334375 C117.72916,20.2848958 118.651825,22.2534722 119,24.2391667 C118.094744,25.0608333 117.346167,26.5158681 116.754269,28.6042708 C116.162371,30.6926736 115.622699,32.1134722 115.135254,32.8666667 L108.450287,40.980625 C108.450287,42.5554861 108.868098,44.1645833 109.703718,45.8079167 C109.703718,45.8763889 110.608974,47.3485417 112.419486,50.224375 L118.373284,59.9816667 L118.791095,62.4466667 C117.885839,62.7205556 116.841313,62.8575 115.657517,62.8575 C114.752261,62.8575 113.864414,62.7719097 112.993975,62.6007292 C112.123537,62.4295486 111.131237,62.1385417 110.017076,61.7277083 C109.459996,61.7961806 109.077003,62.3268403 108.868098,63.3196875 C108.659192,64.3125347 108.136929,64.8089583 107.301309,64.8089583 C105.699702,64.398125 104.132913,63.9872917 102.600942,63.5764583 C101.974226,63.5764583 101.382328,63.7134028 100.825247,63.9872917 C100.546707,64.2611806 100.337802,64.5008333 100.198532,64.70625 C99.6414512,65.2540278 99.1888233,65.5963889 98.8406479,65.7333333 C97.5872167,64.7747222 96.368603,63.2683333 95.1848069,61.2141667 C93.6528354,58.6122222 92.6083094,57.003125 92.0512289,56.386875 C91.215608,56.4553472 90.7977976,57.0373611 90.7977976,58.1329167 L90.7977976,59.77625 C90.7977976,60.4609722 90.7281626,60.8718056 90.5888924,61.00875 C90.4496223,61.1456944 90.3103522,61.6078819 90.171082,62.3953125 C90.0318119,63.1827431 89.6140015,63.3368056 88.9176508,62.8575 C88.7783807,62.7205556 88.7087456,62.4980208 88.7087456,62.1898958 C88.7087456,61.8817708 88.7087456,61.625 88.7087456,61.4195833 C88.7087456,60.8718056 88.5346579,60.4952083 88.1864826,60.2897917 C87.8383073,60.6321528 87.3508618,60.8033333 86.7241462,60.8033333 C86.2367007,60.8033333 85.6448026,60.7348611 84.948452,60.5979167 C84.3217364,60.8033333 83.5035243,61.6078819 82.4938158,63.0115625 C81.4841074,64.4152431 80.6658953,65.1170833 80.0391797,65.1170833 C79.5517342,65.1170833 78.9946537,64.8089583 78.3679381,64.1927083 C78.2286679,64.1242361 77.6715874,63.5764583 76.6966965,62.549375 C76.0003458,61.8646528 75.4084477,61.5222917 74.9210022,61.5222917 L74.0853814,61.7277083 L70.2206352,63.5764583 L69.8028248,62.8575 C69.5242845,60.7348611 69.3850144,58.3383333 69.3850144,55.6679167 C69.3850144,53.6822222 69.4372407,51.14875 69.5416933,48.0675 C69.6461459,44.98625 69.6983722,43.4113889 69.6983722,43.3429167 C69.4198319,42.1788889 69.2805618,40.8094444 69.2805618,39.2345833 C69.2805618,38.2759722 69.3501968,36.6839931 69.489467,34.4586458 C69.6287371,32.2332986 69.6983722,30.9836806 69.6983722,30.7097917 C69.6983722,29.8196528 69.6983722,28.9295139 69.6983722,28.039375 C69.489467,27.2177083 69.3501968,26.6356944 69.2805618,26.2933333 C69.4198319,25.0608333 69.489467,24.1706944 69.489467,23.6229167 C69.489467,22.5273611 69.3501968,20.8840278 69.0716566,18.6929167 C68.7931163,16.5018056 68.6538462,14.8584722 68.6538462,13.7629167 C68.6538462,11.9141667 68.9323864,10.2708333 69.489467,8.83291667 C69.489467,8.21666667 69.4372407,7.41211806 69.3327881,6.41927083 C69.2283355,5.42642361 69.1761092,4.89576389 69.1761092,4.82729167 C69.1761092,4.27951389 69.2109267,3.83444444 69.2805618,3.49208333 C69.9769124,2.60194444 70.8125332,2.156875 71.7874242,2.156875 C72.3445047,2.156875 73.0060379,2.32805556 73.7720236,2.67041667 C75.6521704,3.49208333 76.8707841,3.90291667 77.4278647,3.90291667 C77.7064049,3.83444444 78.1590329,3.52631944 78.7857485,2.97854167 C79.4124641,2.43076389 80.0043622,2.29381944 80.5614427,2.56770833 C81.1881583,3.389375 81.8496915,4.17680556 82.5460421,4.93 C83.6602032,5.06694444 84.7395468,4.69034722 85.7840728,3.80020833 C85.7840728,2.70465278 85.9059341,2.0028125 86.1496569,1.6946875 C86.3933796,1.3865625 86.8285988,1.2325 87.4553144,1.2325 C88.0123949,0.410833333 88.8828333,0 90.0666294,0 C90.4148048,0 90.7107538,0.0171180556 90.9544765,0.0513541667 C91.1981993,0.0855902778 91.5986009,0.205416667 92.1556815,0.410833333 C95.2892595,2.25958333 98.4228375,4.10833333 101.556416,5.95708333 Z M89.6423077,20.4 C89.3807692,21.4793651 89.25,22.7948413 89.25,24.3464286 C89.25,25.493254 89.2826923,26.6400794 89.3480769,27.7869048 C89.4134615,28.9337302 89.4788462,30.0468254 89.5442308,31.1261905 L89.9365385,31.7333333 C90.3288462,31.665873 90.7538462,31.5646825 91.2115385,31.4297619 C91.4730769,31.1599206 92.225,30.5527778 93.4673077,29.6083333 C95.2326923,28.259127 96.1153846,26.9436508 96.1153846,25.6619048 C95.2653846,24.2452381 94.35,23.1321429 93.3692308,22.322619 C92.1923077,21.3107143 90.95,20.6698413 89.6423077,20.4 Z" id="Shape"></path>
                    </g>
                    <g id="Group" transform="translate(67.000000, 227.000000)">
                        <path d="M69.3347548,13.3238043 C70.5283108,13.2155707 71.6133618,14.0273228 72.5899076,15.7590607 C73.1324331,16.8413968 73.620706,17.5449153 74.0547264,17.8696162 C79.479981,23.2812971 84.9594883,28.6388611 90.493248,33.9423084 C95.7014925,40.7610262 99.716181,47.904445 102.537313,55.3725646 C102.537313,56.1301999 101.967662,56.7254848 100.828358,57.1584193 C99.6890547,57.5913537 99.0108979,58.1325218 98.7938877,58.7819235 C99.119403,60.4054278 99.2821606,62.028932 99.2821606,63.6524363 C99.2821606,68.7394163 97.3833215,73.9887467 93.5856432,79.4004276 C90.981521,83.0803706 87.0210851,87.4638321 81.7043355,92.5508121 C78.883203,94.6072508 76.0620706,96.6636896 73.2409382,98.7201283 C69.7687752,100.884801 66.4051173,101.967137 63.1499645,101.967137 C62.607439,101.967137 61.5766406,101.858903 60.0575693,101.642436 C57.6704572,102.508305 54.3610519,103.26594 50.1293532,103.915342 C38.9533286,105.755313 33.1483061,106.729416 32.7142857,106.83765 C31.0867093,106.83765 29.4862592,106.864708 27.9129353,106.918825 C26.3396115,106.972942 24.7391613,107 23.1115849,107 C18.554371,107 14.6210614,106.567066 11.311656,105.701197 C8.00225065,104.835328 5.15399195,102.995356 2.76687989,100.181282 C3.20090026,98.8824787 4.55721393,97.9895514 6.8358209,97.5025001 C9.11442786,97.0154488 10.5249941,96.4472223 11.0675195,95.7978206 C10.5249941,95.1484189 9.65695333,94.6072508 8.4633973,94.1743164 C5.75076996,93.3084474 4.23169865,92.4966953 3.90618337,91.73906 C5.64226487,91.3061255 7.1342099,90.9273078 8.38201848,90.602607 C9.62982706,90.2779061 10.416489,89.6285044 10.7420043,88.6544019 C8.68040749,88.6544019 7.07995736,87.4908905 5.94065387,85.1638677 C4.80135039,82.8368449 3.90618337,81.3486327 3.25515281,80.699231 C3.25515281,80.0498293 3.71629946,79.1839604 4.63859275,78.1016242 C5.56088605,77.019288 5.75076996,76.0451855 5.20824449,75.1793165 C5.42525468,74.5299148 6.13053779,73.9887467 7.32409382,73.5558123 C8.51764985,73.1228778 9.22293295,72.4734761 9.43994314,71.6076072 L7.48685146,39.2998724 C7.37834636,38.9751716 6.86294717,38.4340035 5.94065387,37.6763682 C5.01836058,36.9187328 4.71997157,36.1610975 5.04548685,35.4034622 C5.58801232,35.0787613 6.21191661,34.6458269 6.91719972,34.1046588 C7.62248282,33.5634907 7.97512438,32.914089 7.97512438,32.1564537 C8.08362947,31.1823511 7.541104,30.2082486 6.34754797,29.234146 C5.15399195,28.2600434 4.77422412,27.1777073 5.20824449,25.9871375 C3.79767828,25.1212685 2.82113243,24.41775 2.27860697,23.876582 C1.08505094,22.9024794 0.813788202,21.8201432 1.46481876,20.6295734 C2.22435442,19.8719381 2.60412225,18.6272515 2.60412225,16.8955136 C2.49561715,16.0296447 2.44136461,15.4343598 2.44136461,15.109659 C1.57332386,14.1355564 0.759535655,13.107337 0,12.0250009 C0.434020374,11.5920664 1.43769249,11.3214823 3.01101635,11.2132487 C4.5843402,11.1050151 5.58801232,10.6179638 6.02203269,9.7520949 C8.62615494,9.31916043 11.610045,9.1026932 14.9737029,9.1026932 C16.8182895,9.1026932 19.9649372,9.21092681 24.4136461,9.42739405 C28.8623549,9.64386128 31.1952144,9.7520949 31.4122246,9.7520949 C32.2802653,8.77799234 33.934968,8.10153224 36.3763326,7.72271458 C38.8176972,7.34389692 40.2011372,7.10037128 40.5266525,6.99213766 C41.8287136,6.99213766 43.157901,6.99213766 44.5142146,6.99213766 C45.8705283,6.99213766 47.2539683,6.93802085 48.6645345,6.82978723 C54.7408197,6.82978723 59.1895285,7.37095532 62.010661,8.45329149 C64.8317934,9.53562767 67.273158,11.1591319 69.3347548,13.3238043 Z M46.5486851,44.3327356 L46.3859275,70.9582055 L47.3624733,72.4193593 C49.315565,71.9864248 51.0516465,71.3911399 52.5707178,70.6335046 C54.7408197,69.3347012 56.3141436,68.4147154 57.2906894,67.8735474 C57.7247098,67.3323793 58.8640133,66.3041599 60.7085999,64.7888893 C63.4212272,62.5159833 64.9402985,60.4595446 65.2658138,58.6195731 C63.6382374,56.4549007 61.1968728,53.9114107 57.94172,50.9891031 C52.9504857,46.5515248 50.2378583,44.1162684 49.803838,43.6833339 C49.1528074,43.4668667 48.6645345,43.3586331 48.3390192,43.3586331 C47.4709784,43.3586331 46.8742004,43.6833339 46.5486851,44.3327356 Z" id="Shape"></path>
                        <path d="M140.267605,7.7862456 C140.594349,7.67821325 141.084464,7.05702724 141.737952,5.92268756 C142.391439,4.78834789 143.208298,4.3292104 144.188529,4.5452751 C144.624187,5.73363095 144.842016,7.1380515 144.842016,8.75853675 C144.842016,10.054925 144.624187,11.5943859 144.188529,13.3769197 C143.752871,15.1594535 143.37167,16.860963 143.044926,18.4814483 C142.391439,21.7224188 141.928552,25.3685106 141.656266,29.4197237 C141.383979,33.4709369 141.247836,37.7652228 141.247836,42.3025815 L141.247836,45.7056005 C143.643956,52.7277033 145.386589,60.0198869 146.475735,67.5821514 C147.56488,75.1444159 148.109453,82.9767613 148.109453,91.0791876 C147.891624,92.5916405 147.020307,93.7799963 145.495504,94.6442551 C143.9707,95.5085139 142.500354,96.3187566 141.084464,97.074983 C139.124003,96.8589183 137.163541,96.5888374 135.203079,96.2647404 C134.767421,98.5334197 133.37876,100.126897 131.037098,101.045172 C128.695435,101.963447 126.435458,102.800698 124.257167,103.556924 C122.841278,103.772989 121.833818,102.746681 121.234788,100.478002 C120.635758,98.2093227 119.955042,97.074983 119.192641,97.074983 C118.539153,97.074983 117.667837,97.4530962 116.578691,98.2093227 C116.469777,98.317355 116.061347,98.614444 115.353403,99.1005896 C114.645458,99.5867352 114.0192,99.7217756 113.474627,99.5057109 C112.60331,99.0735815 111.541394,97.993258 110.288876,96.2647404 C109.036359,94.5362228 107.81107,93.671964 106.61301,93.671964 C106.61301,91.4032846 106.667468,87.9732575 106.776382,83.3818826 C106.885297,78.7905078 106.939754,75.3604806 106.939754,73.0918013 L106.939754,71.147219 C106.939754,66.3937956 106.61301,61.6403722 105.959523,56.8869488 C106.504096,51.1612342 106.776382,45.9756814 106.776382,41.3302903 C106.776382,35.8206405 106.61301,30.6891038 106.286267,25.9356804 C105.632779,18.9135777 105.142664,13.7280249 104.81592,10.379022 L105.306036,8.92058528 C106.61301,9.13664998 107.538784,10.2169735 108.083357,12.1615558 C108.62793,14.1061381 109.444789,15.1864616 110.533934,15.4025263 C111.514165,11.9454911 112.494396,8.48845588 113.474627,5.03142067 C114.999431,5.35551772 116.088576,7.08403533 116.742063,10.2169735 C117.395551,13.3499116 118.648068,14.9163807 120.499615,14.9163807 C120.826359,14.9163807 121.425389,14.8083484 122.296705,14.5922837 C123.059107,13.5119602 123.712594,11.7564345 124.257167,9.32570659 C124.80174,6.89497871 125.182941,5.4095339 125.40077,4.86937215 C127.143402,4.65330745 128.450377,5.24748537 129.321693,6.65190593 C129.103864,8.92058528 129.430608,10.5950867 130.301924,11.6754102 C131.173241,11.4593455 131.826728,10.8651676 132.262386,9.89287643 C132.698044,8.92058528 133.133703,7.89427795 133.569361,6.81395445 C134.005019,5.73363095 134.38622,4.81535597 134.712963,4.05912952 C135.039707,3.30290307 135.475365,2.70872515 136.019938,2.27659574 C137.000169,2.38462809 137.735342,3.27589498 138.225458,4.95039641 C138.715573,6.62489784 139.396289,7.5701809 140.267605,7.7862456 Z" id="Path"></path>
                        <path d="M173.294704,8.14320786 C175.460118,8.14320786 178.708241,7.92605565 183.03907,7.49175123 C187.3699,7.05744681 190.618022,6.8402946 192.783437,6.8402946 C194.190957,6.8402946 195.273664,6.89458265 196.031559,7.00315876 C197.222537,7.11173486 198.521786,7.05744681 199.929306,6.8402946 C204.260136,6.18883797 206.587957,5.86310966 206.912769,5.86310966 C209.078184,5.86310966 210.864651,6.51456628 212.27217,7.81747954 C213.246607,7.60032733 215.033074,7.41031915 217.631572,7.24745499 C220.23007,7.08459083 222.178943,6.62314239 223.478192,5.86310966 C224.885712,5.64595745 225.697742,5.91739771 225.914284,6.67743044 C226.130825,7.54603928 225.616539,8.52322422 224.371426,9.60898527 C223.126312,10.6947463 222.503756,11.400491 222.503756,11.7262193 C222.503756,12.1605237 223.045109,12.7034043 224.127817,13.3548609 C225.102253,13.1377087 225.751878,13.3548609 226.07669,14.0063175 C226.07669,14.8749264 225.454133,15.6621031 224.20902,16.3678478 C222.963906,17.0735925 222.395485,17.9150573 222.503756,18.8922422 C222.720297,19.5436989 223.478192,20.0322913 224.777441,20.3580196 C226.07669,20.683748 226.726314,21.3352046 226.726314,22.3123895 C226.401502,22.85527 225.535336,23.3438625 224.127817,23.7781669 C222.720297,24.2124714 221.962402,24.863928 221.854131,25.7325368 C222.287214,26.2754173 223.234583,26.7911538 224.696238,27.2797463 C226.157893,27.7683388 226.942856,28.4469394 227.051127,29.3155483 C225.968419,29.7498527 224.263155,30.1298691 221.935334,30.4555974 C219.607513,30.7813257 217.956384,31.107054 216.981948,31.4327823 C217.198489,32.4099673 217.848114,33.1157119 218.930821,33.5500164 C220.013528,33.9843208 221.123304,34.3371931 222.260146,34.6086334 C223.396989,34.8800736 224.66917,35.1243699 226.07669,35.3415221 C227.48421,35.5586743 228.079699,36.264419 227.863157,37.4587561 C227.321804,37.8930606 226.590976,38.2187889 225.670675,38.4359411 C224.750373,38.6530933 223.803004,38.7616694 222.828568,38.7616694 C221.962402,38.7616694 221.069168,38.7073813 220.148867,38.5988052 C219.228566,38.4902291 217.523301,38.327365 215.033074,38.1102128 C212.542847,37.8930606 209.294725,37.7844845 205.288708,37.7844845 C201.932315,37.7844845 198.521786,37.9473486 195.057123,38.2730769 C193.974415,38.8159574 193.541332,40.0645827 193.757874,42.0189525 L196.031559,43.48473 C202.636074,42.9418494 207.860138,42.534689 211.703749,42.2632488 C215.54736,41.9918085 219.851122,41.8560884 224.615035,41.8560884 C224.615035,42.6161211 225.075186,43.4032979 225.995487,44.2176187 C226.915788,45.0319394 227.375939,45.7105401 227.375939,46.2534206 C226.942856,46.9048773 225.616539,47.692054 223.396989,48.6149509 C221.177439,49.5378478 220.067664,50.5421768 220.067664,51.6279378 C220.067664,52.0622422 220.284205,52.6594108 220.717288,53.4194435 C220.717288,54.3966285 220.040596,55.2380933 218.687212,55.943838 C217.333828,56.6495827 216.657135,57.4367594 216.657135,58.3053682 C216.981948,58.8482488 217.766911,59.4725614 219.012024,60.1783061 C220.257138,60.8840507 220.879694,61.5626514 220.879694,62.214108 C220.879694,62.5398363 220.717288,62.9741408 220.392476,63.5170213 C220.067664,63.9513257 220.175935,64.5213502 220.717288,65.2270949 C221.258642,65.9328396 221.475183,66.5028642 221.366913,66.9371686 L217.956384,68.7286743 L195.381935,69.5429951 C194.73231,70.0858756 194.407498,70.9001964 194.407498,71.9859574 C194.407498,72.528838 194.542837,73.2888707 194.813513,74.2660556 C195.08419,75.2432406 195.219529,75.8946972 195.219529,76.2204255 L196.681184,77.5233388 C198.413516,77.6319149 199.929306,77.713347 201.228555,77.767635 C202.527804,77.8219231 203.664647,77.8490671 204.639083,77.8490671 C207.237581,77.8490671 210.05262,77.767635 213.084201,77.6047709 C216.115782,77.4419067 219.472175,77.1433224 223.15338,76.709018 C223.586463,77.0347463 223.667666,77.6047709 223.396989,78.4190917 C223.126312,79.2334124 222.990974,79.6948609 222.990974,79.803437 C222.990974,80.4548936 223.424057,80.83491 224.290223,80.9434861 C225.806013,80.6177578 226.888721,80.4548936 227.538345,80.4548936 C228.187969,80.4548936 228.675188,80.7263339 229,81.2692144 C228.783459,82.1378232 228.242105,83.2778723 227.375939,84.6893617 C226.509773,86.1008511 226.022555,87.1866121 225.914284,87.9466448 C224.615035,89.0324059 223.315786,90.1181669 222.016537,91.203928 C222.016537,91.5296563 222.395485,92.0453928 223.15338,92.7511375 C223.911275,93.4568822 224.181952,94.1354828 223.965411,94.7869394 L218.11879,97.8813584 C218.11879,98.424239 218.551873,98.9399755 219.418039,99.4285679 C220.284205,99.9171604 220.446611,100.595761 219.905258,101.46437 C218.82255,102.332979 217.577437,103.038723 216.169917,103.581604 C214.762398,104.124484 212.86766,104.395925 210.485703,104.395925 C208.969913,104.395925 207.345852,104.287349 205.61352,104.070196 C201.174419,103.527316 198.413516,103.255876 197.330808,103.255876 C196.681184,103.255876 196.031559,103.255876 195.381935,103.255876 C194.515769,103.473028 193.812009,103.608748 193.270655,103.663036 C192.729302,103.717324 191.646594,103.744468 190.022533,103.744468 C189.264638,103.744468 188.046592,103.69018 186.368396,103.581604 C184.690199,103.473028 183.418018,103.41874 182.551852,103.41874 C180.927791,103.41874 179.493204,103.55446 178.24809,103.8259 C177.002976,104.09734 175.784931,104.613077 174.593952,105.37311 C174.052599,105.481686 173.402974,105.427398 172.645079,105.210245 C170.587935,104.667365 169.396957,104.395925 169.072145,104.395925 C168.097708,104.395925 167.339813,104.884517 166.798459,105.861702 C165.390939,105.753126 164.199961,105.37311 163.225525,104.721653 C161.709734,103.744468 160.248079,102.224403 158.84056,100.161457 C157.324769,99.2928478 156.296197,98.6413912 155.754843,98.2070867 C154.672136,97.447054 154.130782,96.5241571 154.130782,95.4383961 C154.130782,92.1811129 154.455595,87.2951882 155.105219,80.7806219 C155.754843,74.2660556 156.079656,69.434419 156.079656,66.2857119 C156.079656,59.119689 155.592437,52.1165303 154.618001,45.2762357 C154.618001,42.3446809 154.482662,38.4359411 154.211985,33.5500164 C153.941309,28.6640917 153.80597,25.7325368 153.80597,24.7553519 C154.347324,23.6695908 154.672136,22.6652619 154.780407,21.742365 C154.888678,20.8194681 154.942813,19.5979869 154.942813,18.0779214 C154.942813,16.557856 154.807475,14.4406219 154.536798,11.7262193 C154.266121,9.01181669 154.130782,7.32888707 154.130782,6.67743044 C154.130782,6.02597381 154.130782,5.37451718 154.130782,4.72306056 C154.347324,3.85445172 154.455595,3.20299509 154.455595,2.76869067 L155.430031,1.79150573 C156.512739,1.68292962 157.974394,2.17152209 159.814996,3.25728314 C161.655599,4.34304419 162.900712,4.88592471 163.550337,4.88592471 C164.633044,4.88592471 165.445075,4.28875614 165.986429,3.09441899 L166.636053,0 C168.368385,0 169.47816,1.27576923 169.965378,3.82730769 C170.452597,6.37884615 171.562372,7.81747954 173.294704,8.14320786 Z" id="Path"></path>
                    </g>
                </g>
                <text id="comunidad-hispana-de" font-family="ZombieA, Zombie" font-size="32" font-weight="normal" fill="#FFFFFF">
                    <tspan x="0.12" y="400">comunidad hispana de zomboid project</tspan>
                </text>
            </g>
        </g>
    </g>
</svg>